<svg xmlns="http://www.w3.org/2000/svg" viewBox="0 0 1200 675" role="img" aria-labelledby="title desc">
  <title id="title">Sketch of masking a photo with an alpha layer</title>
  <desc id="desc">Two stacked picture frames show a JPEG and a translucent mask aligning to form a lightweight transparent image.</desc>
  <rect width="1200" height="675" rx="24" fill="#f8f4ec"/>
  <g stroke="#2f2a2f" stroke-width="4" stroke-linecap="round" stroke-linejoin="round" fill="none">
    <rect x="210" y="130" width="360" height="250" rx="18" fill="#fefcf6" stroke="#2f2a2f"/>
    <rect x="630" y="190" width="360" height="250" rx="18" fill="#fefcf6" stroke="#2f2a2f"/>
    <rect x="245" y="160" width="300" height="190" rx="16" fill="#d9e7ff" stroke="#2f2a2f"/>
    <path d="M245 280h300" stroke="#f08c42" stroke-dasharray="10 10"/>
    <path d="M270 210l48 54 46-34 60 70 52-36 54 52" stroke="#2f2a2f"/>
    <rect x="665" y="220" width="300" height="190" rx="16" fill="#fde6d2" stroke="#f08c42"/>
    <path d="M665 320h300" stroke="#2f2a2f" stroke-dasharray="10 12"/>
    <path d="M696 250l58 68 56-40 62 66 46-30 28 30" stroke="#2f2a2f"/>
    <circle cx="410" cy="432" r="52" fill="#fefcf6" stroke="#2f2a2f"/>
    <circle cx="790" cy="432" r="52" fill="#fefcf6" stroke="#2f2a2f"/>
  </g>
  <g stroke="#f08c42" stroke-width="4" stroke-linecap="round" fill="none">
    <path d="M470 260c40 8 84 14 140 14"/>
    <path d="M590 274c12 30 24 60 48 82"/>
    <path d="M352 432h116"/>
    <path d="M732 432h116"/>
  </g>
  <g fill="#2f2a2f" font-family="'Permanent Marker', 'Marker Felt', sans-serif" font-size="32" opacity="0.8">
    <text x="360" y="440">PNG mask</text>
    <text x="740" y="440">JPEG base</text>
  </g>
</svg>
