<svg xmlns="http://www.w3.org/2000/svg" viewBox="0 0 1200 675" role="img" aria-labelledby="title desc">
  <title id="title">Sketch of framework building blocks</title>
  <desc id="desc">Layered blocks labeled routing, accessibility, security, and shared language stacking into a stable app.</desc>
  <rect width="1200" height="675" rx="24" fill="#f8f4ec"/>
  <g stroke="#2f2a2f" stroke-width="4" stroke-linecap="round" stroke-linejoin="round" fill="#fefcf6">
    <rect x="240" y="380" width="720" height="50" rx="12" fill="#fde6d2"/>
    <rect x="260" y="320" width="220" height="60" rx="12" fill="#d9e7ff"/>
    <rect x="500" y="320" width="220" height="60" rx="12" fill="#dff4d7"/>
    <rect x="740" y="320" width="220" height="60" rx="12" fill="#fde6d2"/>
    <rect x="340" y="260" width="220" height="60" rx="12" fill="#fefcf6"/>
    <rect x="580" y="260" width="220" height="60" rx="12" fill="#d9e7ff"/>
  </g>
  <g stroke="#f08c42" stroke-width="4" stroke-linecap="round" fill="none">
    <path d="M300 370v-42m60 42v-42"/>
    <path d="M540 370v-42m60 42v-42"/>
    <path d="M780 370v-42m60 42v-42"/>
    <path d="M430 310v-40m60 40v-40"/>
    <path d="M670 310v-40m60 40v-40"/>
  </g>
  <g fill="#2f2a2f" font-family="'Permanent Marker', 'Marker Felt', sans-serif" font-size="26" opacity="0.86">
    <text x="420" y="240">shared lexicon</text>
    <text x="620" y="240">guardrails</text>
    <text x="312" y="356">routing</text>
    <text x="552" y="356">a11y</text>
    <text x="804" y="356">security</text>
    <text x="520" y="416">apps ship faster</text>
  </g>
</svg>
