<svg xmlns="http://www.w3.org/2000/svg" viewBox="0 0 1200 675" role="img" aria-labelledby="title desc">
  <title id="title">Sketch of adaptive content flowing to multiple devices</title>
  <desc id="desc">A hand-sketched cloud of content metadata connected to phone, tablet, and laptop screens.</desc>
  <rect width="1200" height="675" rx="24" fill="#f8f4ec"/>
  <g stroke="#2f2a2f" stroke-width="4" stroke-linecap="round" stroke-linejoin="round" fill="none">
    <rect x="280" y="120" width="640" height="200" rx="26" fill="#fefcf6" stroke="#f08c42"/>
    <rect x="290" y="130" width="620" height="180" rx="22" stroke="#2f2a2f"/>
    <path d="M340 190h520" stroke="#2f2a2f" stroke-dasharray="12 10"/>
    <circle cx="370" cy="230" r="26" fill="#fde6d2"/>
    <circle cx="470" cy="230" r="26" fill="#d9e7ff"/>
    <circle cx="570" cy="230" r="26" fill="#dff4d7"/>
    <circle cx="670" cy="230" r="26" fill="#f9e0ff"/>
    <path d="M370 200v-34m100 34v-34m100 34v-34m100 34v-34" stroke="#2f2a2f"/>
    <path d="M600 320v72"/>
    <path d="M520 392c28 22 132 22 160 0"/>
    <rect x="216" y="420" width="150" height="220" rx="20" fill="#fefcf6"/>
    <rect x="214" y="418" width="154" height="224" rx="22" stroke="#2f2a2f"/>
    <rect x="546" y="372" width="200" height="260" rx="28" fill="#fefcf6"/>
    <rect x="540" y="366" width="212" height="272" rx="30" stroke="#2f2a2f"/>
    <rect x="886" y="428" width="120" height="182" rx="22" fill="#fefcf6"/>
    <rect x="880" y="422" width="132" height="194" rx="24" stroke="#2f2a2f"/>
    <path d="M290 330c-40 14-70 54-70 94" stroke="#2f2a2f"/>
    <path d="M600 330v22"/>
    <path d="M880 330c40 12 70 52 70 92"/>
    <path d="M450 348c-38 22-62 62-62 96" stroke="#2f2a2f"/>
    <path d="M750 348c38 22 62 62 62 96" stroke="#2f2a2f"/>
    <path d="M320 522h60m-60 34h60"/>
    <path d="M604 430h84v124h-84z" fill="#f2f7ff"/>
    <path d="M620 470h52"/>
    <path d="M936 492h40"/>
    <path d="M936 530h40"/>
    <path d="M260 450h72v96h-72z" fill="#f2f7ff"/>
  </g>
  <g stroke="#f08c42" stroke-width="4" stroke-linecap="round" fill="none">
    <path d="M600 320l-210 100"/>
    <path d="M600 320l0 80"/>
    <path d="M600 320l210 100"/>
  </g>
</svg>
