<svg xmlns="http://www.w3.org/2000/svg" viewBox="0 0 1200 675" role="img" aria-labelledby="title desc">
  <title id="title">Sketch of structured output contract</title>
  <desc id="desc">A schema card feeds predictable JSON blocks with checkmarks, showing validation and contract tests.</desc>
  <rect width="1200" height="675" rx="24" fill="#f8f4ec"/>
  <g stroke="#2f2a2f" stroke-width="4" stroke-linecap="round" stroke-linejoin="round" fill="#fefcf6">
    <rect x="220" y="170" width="320" height="220" rx="22" fill="#d9e7ff"/>
    <rect x="240" y="190" width="280" height="180" rx="18" fill="#fefcf6"/>
    <rect x="620" y="170" width="320" height="130" rx="22" fill="#fde6d2"/>
    <rect x="620" y="330" width="320" height="130" rx="22" fill="#dff4d7"/>
    <path d="M266 226h228m-228 40h228m-228 40h180" stroke="#2f2a2f" stroke-dasharray="10 10"/>
  </g>
  <g stroke="#f08c42" stroke-width="4" stroke-linecap="round" fill="none">
    <path d="M540 260c40 10 80 10 120 0"/>
    <path d="M540 300c44 30 108 30 160 0"/>
    <path d="M540 340c40 14 90 18 140 12"/>
    <path d="M700 238l22 22 38-38"/>
    <path d="M700 398l22 22 38-38"/>
  </g>
  <g fill="#2f2a2f" font-family="'Permanent Marker', 'Marker Felt', sans-serif" font-size="26" opacity="0.86">
    <text x="280" y="162">schema first</text>
    <text x="642" y="162">structured output</text>
    <text x="640" y="320">validation &amp; tests</text>
    <text x="248" y="420">diff contracts, not vibes</text>
  </g>
</svg>
