<svg xmlns="http://www.w3.org/2000/svg" width="168" height="108" viewBox="0 0 168 108"><path fill="#FFF" d="M7.67 20.33H161v70H7.67z"/><g fill="#333"><path d="M54.97 38.54a6.704 6.704 0 0 0-2.65-1.26c-1-.22-2.07-.33-3.21-.33H36v16.07h12.98c.95 0 1.93-.13 2.93-.41 1-.27 1.91-.72 2.75-1.33.84-.61 1.52-1.43 2.04-2.45s.79-2.31.79-3.85c0-1.59-.23-2.91-.68-3.95-.46-1.04-1.07-1.87-1.84-2.49z"/><path d="M0 0v108h168V0H0zm88 30h8v8h-8v-8zM65.35 49.92c-.43 1.75-1.24 3.37-2.42 4.87s-2.86 2.73-5.04 3.71-5 1.46-8.44 1.46H36V78h-8V30h21.45c3.45 0 6.26.5 8.44 1.5 2.17 1 3.86 2.25 5.04 3.75 1.18 1.5 1.99 3.14 2.42 4.9.43 1.77.65 3.41.65 4.91 0 1.49-.21 3.11-.65 4.86zM96 78h-8v-8h8v8zm24-20H88v-8h32v8zm14.84 19.47l-1.68 3.63-7.26-3.358 1.68-3.632A47.627 47.627 0 0 0 132 53.99c0-7-1.49-13.77-4.42-20.11l-1.68-3.63 7.26-3.36 1.68 3.63c3.42 7.4 5.15 15.29 5.15 23.46a55.43 55.43 0 0 1-5.15 23.49z"/></g></svg>